<svg width="365" height="66" viewBox="0 0 365 66" xmlns="http://www.w3.org/2000/svg">
    <path fill-rule="evenodd" clip-rule="evenodd" d="M92.1328 42.0001C90.8659 42.0001 89.777 41.5447 88.8662 40.6334C87.9549 39.7222 87.4995 38.6337 87.4995 37.3668V22.6338C87.4995 21.3673 87.9549 20.2784 88.8662 19.3672C89.777 18.4559 90.8659 18.0005 92.1328 18.0005H111.432V22.4339H93.066C92.4439 22.4339 92.0939 22.4728 92.016 22.5503C91.9382 22.6281 91.8992 22.9781 91.8992 23.6002V36.4004C91.8992 37.0225 91.9382 37.3725 92.016 37.4503C92.0939 37.5278 92.4439 37.5667 93.066 37.5667H111.432V42.0001H92.1328ZM124.665 42.0001V33.0003L113.599 18.0005H118.799L126.899 28.167L134.932 18.0005H140.199L129.099 33.0336V42.0001H124.665ZM141.865 42.0001V18.0005H160.265C161.532 18.0005 162.621 18.4559 163.532 19.3672C164.443 20.2784 164.899 21.3673 164.899 22.6338V27.3337C164.899 27.6224 164.876 27.9002 164.832 28.167C164.787 28.4335 164.71 28.6894 164.598 28.9335C164.976 29.4449 165.282 29.9782 165.515 30.5338C165.749 31.089 165.865 31.6446 165.865 32.2002V37.3668C165.865 38.6337 165.41 39.7222 164.498 40.6334C163.587 41.5447 162.487 42.0001 161.198 42.0001H141.865ZM147.432 37.5667H160.265C160.865 37.5667 161.21 37.5278 161.299 37.4503C161.387 37.3725 161.432 37.0225 161.432 36.4004V33.167C161.432 32.5449 161.387 32.1949 161.299 32.117C161.21 32.0392 160.865 32.0002 160.265 32.0002H147.432C146.81 32.0002 146.46 32.0392 146.382 32.117C146.304 32.1949 146.265 32.5449 146.265 33.167V36.4004C146.265 37.0225 146.304 37.3725 146.382 37.4503C146.46 37.5278 146.81 37.5667 147.432 37.5667ZM147.432 27.5668H159.298C159.921 27.5668 160.265 27.5283 160.332 27.4504C160.399 27.3726 160.432 27.0226 160.432 26.4005V23.6002C160.432 22.9781 160.399 22.6281 160.332 22.5503C160.265 22.4728 159.921 22.4339 159.298 22.4339H147.432C146.81 22.4339 146.46 22.4728 146.382 22.5503C146.304 22.6281 146.265 22.9781 146.265 23.6002V26.4005C146.265 27.0226 146.304 27.3726 146.382 27.4504C146.46 27.5283 146.81 27.5668 147.432 27.5668ZM169.565 42.0001V18.0005H191.632L191.665 22.4339L173.999 22.4006V27.7672L188.198 27.8004V32.2334L173.999 32.2002V37.5667L191.632 37.6004L191.665 42.0001H169.565ZM194.998 42.0001V18.0337H214.331C215.62 18.0337 216.72 18.4948 217.631 19.4171C218.542 20.3393 218.998 21.4228 218.998 22.6671V29.1338C218.998 30.4004 218.542 31.4892 217.631 32.4001C216.72 33.3114 215.62 33.7668 214.331 33.7668H213.031L218.964 40.7669V42.0001H214.165L207.265 33.7668L199.398 33.8004V42.0001H194.998ZM200.565 29.3338H213.398C213.998 29.3338 214.337 29.3001 214.415 29.2336C214.492 29.1671 214.531 28.8224 214.531 28.2003V23.6002C214.531 22.9781 214.492 22.6281 214.415 22.5503C214.337 22.4728 213.998 22.4339 213.398 22.4339H200.565C199.943 22.4339 199.593 22.4728 199.515 22.5503C199.437 22.6281 199.398 22.9781 199.398 23.6002V28.2003C199.398 28.8224 199.437 29.1671 199.515 29.2336C199.593 29.3001 199.943 29.3338 200.565 29.3338ZM237.264 42.0001C235.998 42.0001 234.909 41.5447 233.997 40.6334C233.087 39.7222 232.631 38.6337 232.631 37.3668V35.5337H237.031V36.4004C237.031 37.0225 237.07 37.3725 237.147 37.4503C237.225 37.5278 237.575 37.5667 238.197 37.5667H251.031C251.653 37.5667 252.003 37.5278 252.081 37.4503C252.158 37.3725 252.197 37.0225 252.197 36.4004V33.3669C252.197 32.7448 252.158 32.4001 252.081 32.3336C252.003 32.2671 251.653 32.2334 251.031 32.2334H237.264C235.998 32.2334 234.909 31.7723 233.997 30.8501C233.087 29.9279 232.631 28.8337 232.631 27.5668V22.6338C232.631 21.3673 233.087 20.2784 233.997 19.3672C234.909 18.4559 235.998 18.0005 237.264 18.0005H251.997C253.264 18.0005 254.353 18.4559 255.264 19.3672C256.175 20.2784 256.63 21.3673 256.63 22.6338V24.4669H252.197V23.6002C252.197 22.9781 252.158 22.6281 252.081 22.5503C252.003 22.4728 251.653 22.4339 251.031 22.4339H238.197C237.575 22.4339 237.225 22.4728 237.147 22.5503C237.07 22.6281 237.031 22.9781 237.031 23.6002V26.6337C237.031 27.2558 237.07 27.6005 237.147 27.667C237.225 27.7335 237.575 27.7672 238.197 27.7672H251.997C253.264 27.7672 254.353 28.2283 255.264 29.1505C256.175 30.0727 256.63 31.1669 256.63 32.4337V37.3668C256.63 38.6337 256.175 39.7222 255.264 40.6334C254.353 41.5447 253.264 42.0001 251.997 42.0001H237.264ZM260.264 42.0001V18.0337H279.597C280.885 18.0337 281.985 18.4948 282.897 19.4171C283.807 20.3393 284.263 21.4228 284.263 22.6671V29.1338C284.263 30.4004 283.807 31.4892 282.897 32.4001C281.985 33.3114 280.885 33.7668 279.597 33.7668L264.663 33.8004V42.0001H260.264ZM265.83 29.3338H278.663C279.263 29.3338 279.608 29.3001 279.696 29.2336C279.786 29.1671 279.83 28.8224 279.83 28.2003V23.6002C279.83 22.9781 279.786 22.6281 279.696 22.5503C279.608 22.4728 279.263 22.4339 278.663 22.4339H265.83C265.208 22.4339 264.858 22.4728 264.78 22.5503C264.702 22.6281 264.663 22.9781 264.663 23.6002V28.2003C264.663 28.8224 264.702 29.1671 264.78 29.2336C264.858 29.3001 265.208 29.3338 265.83 29.3338ZM286.796 42.0001V22.6338C286.796 21.3673 287.252 20.2784 288.163 19.3672C289.074 18.4559 290.163 18.0005 291.43 18.0005H306.129C307.418 18.0005 308.518 18.4559 309.429 19.3672C310.34 20.2784 310.796 21.3673 310.796 22.6338V42.0001H306.362V33.9335H291.196V42.0001H286.796ZM291.196 29.5337H306.362V23.6002C306.362 22.9781 306.318 22.6281 306.229 22.5503C306.141 22.4728 305.796 22.4339 305.196 22.4339H292.363C291.741 22.4339 291.391 22.4728 291.313 22.5503C291.235 22.6281 291.196 22.9781 291.196 23.6002V29.5337ZM319.229 42.0001C317.962 42.0001 316.873 41.5447 315.962 40.6334C315.051 39.7222 314.596 38.6337 314.596 37.3668V22.6338C314.596 21.3673 315.051 20.2784 315.962 19.3672C316.873 18.4559 317.962 18.0005 319.229 18.0005H338.529V22.4339H320.162C319.54 22.4339 319.19 22.4728 319.112 22.5503C319.034 22.6281 318.996 22.9781 318.996 23.6002V36.4004C318.996 37.0225 319.034 37.3725 319.112 37.4503C319.19 37.5278 319.54 37.5667 320.162 37.5667H338.529V42.0001H319.229ZM342.062 42.0001V18.0005H364.128L364.162 22.4339L346.495 22.4006V27.7672L360.695 27.8004V32.2334L346.495 32.2002V37.5667L364.128 37.6004L364.162 42.0001H342.062Z"/>
    <path fill="white" fill-rule="evenodd" clip-rule="evenodd" d="M162.732 62.3245C162.125 62.3245 161.605 62.1087 161.174 61.6771C160.742 61.2455 160.526 60.7261 160.526 60.1188V55.2598C160.526 54.6524 160.742 54.1328 161.174 53.7015C161.605 53.2699 162.125 53.0541 162.732 53.0541H169.925V55.1479H163.18C162.881 55.1479 162.713 55.1665 162.676 55.2039C162.639 55.2409 162.62 55.4091 162.62 55.7073V59.6713C162.62 59.9695 162.639 60.1373 162.676 60.1747C162.713 60.2121 162.881 60.2307 163.18 60.2307H169.941V62.3245H162.732ZM173.729 62.3245C173.122 62.3245 172.602 62.1087 172.171 61.6771C171.739 61.2455 171.523 60.7261 171.523 60.1188V55.2598C171.523 54.6524 171.739 54.1328 172.171 53.7015C172.602 53.2699 173.122 53.0541 173.729 53.0541H178.732C179.339 53.0541 179.859 53.2699 180.29 53.7015C180.722 54.1328 180.938 54.6524 180.938 55.2598V60.1188C180.938 60.7261 180.722 61.2455 180.29 61.6771C179.859 62.1087 179.339 62.3245 178.732 62.3245H173.729ZM174.177 60.2307H178.284C178.583 60.2307 178.751 60.2121 178.788 60.1747C178.825 60.1373 178.844 59.9695 178.844 59.6713V55.7073C178.844 55.4091 178.825 55.2409 178.788 55.2039C178.751 55.1665 178.583 55.1479 178.284 55.1479H174.177C173.878 55.1479 173.71 55.1665 173.673 55.2039C173.636 55.2409 173.617 55.4091 173.617 55.7073V59.6713C173.617 59.9695 173.636 60.1373 173.673 60.1747C173.71 60.2121 173.878 60.2307 174.177 60.2307ZM182.632 62.3245V53.0541H194.124C194.731 53.0541 195.251 53.2699 195.682 53.7015C196.114 54.1328 196.33 54.6524 196.33 55.2598V62.3245H194.252V55.7073C194.252 55.4091 194.231 55.2409 194.188 55.2039C194.146 55.1665 193.98 55.1479 193.692 55.1479H191.103C190.805 55.1479 190.637 55.1665 190.6 55.2039C190.563 55.2409 190.544 55.4091 190.544 55.7073V62.3245H188.434V55.7073C188.434 55.4091 188.416 55.2409 188.378 55.2039C188.341 55.1665 188.173 55.1479 187.875 55.1479H185.285C184.987 55.1479 184.819 55.1665 184.782 55.2039C184.744 55.2409 184.726 55.4091 184.726 55.7073V62.3245H182.632ZM197.641 66.0009V53.0541H204.849C205.457 53.0541 205.976 53.2699 206.408 53.7015C206.84 54.1328 207.055 54.6524 207.055 55.2598V60.1188C207.055 60.7261 206.84 61.2455 206.408 61.6771C205.976 62.1087 205.457 62.3245 204.849 62.3245H199.734V66.0009H197.641ZM200.294 60.2307H204.402C204.7 60.2307 204.868 60.2121 204.905 60.1747C204.943 60.1373 204.961 59.9695 204.961 59.6713V55.7073C204.961 55.4091 204.943 55.2409 204.905 55.2039C204.868 55.1665 204.7 55.1479 204.402 55.1479H200.294C199.995 55.1479 199.827 55.1665 199.79 55.2039C199.753 55.2409 199.734 55.4091 199.734 55.7073V59.6713C199.734 59.9695 199.753 60.1373 199.79 60.1747C199.827 60.2121 199.995 60.2307 200.294 60.2307ZM210.444 62.3245C209.836 62.3245 209.317 62.1087 208.885 61.6771C208.454 61.2455 208.238 60.7261 208.238 60.1188V53.0541H210.332V59.6713C210.332 59.9695 210.351 60.1373 210.388 60.1747C210.425 60.2121 210.593 60.2307 210.892 60.2307H214.999C215.297 60.2307 215.465 60.2121 215.503 60.1747C215.54 60.1373 215.559 59.9695 215.559 59.6713V53.0541H217.652V60.1188C217.652 60.7261 217.437 61.2455 217.005 61.6771C216.574 62.1087 216.054 62.3245 215.447 62.3245H210.444ZM221.201 62.3245C220.593 62.3245 220.074 62.1087 219.642 61.6771C219.211 61.2455 218.995 60.7261 218.995 60.1188V50.2089H221.089V53.0541H224.701V55.1479H221.089V59.6713C221.089 59.9695 221.108 60.1373 221.145 60.1747C221.182 60.2121 221.35 60.2307 221.649 60.2307H224.701V62.3245H221.201ZM228.17 62.3245C227.562 62.3245 227.043 62.1087 226.611 61.6771C226.18 61.2455 225.964 60.7261 225.964 60.1188V55.2598C225.964 54.6524 226.18 54.1328 226.611 53.7015C227.043 53.2699 227.562 53.0541 228.17 53.0541H233.173C233.78 53.0541 234.299 53.2699 234.731 53.7015C235.163 54.1328 235.378 54.6524 235.378 55.2598V58.7442H228.058V59.6713C228.058 59.9695 228.076 60.1373 228.114 60.1747C228.151 60.2121 228.319 60.2307 228.617 60.2307H235.378V62.3245H228.17ZM228.058 56.8582H233.285V55.7073C233.285 55.4091 233.266 55.2409 233.229 55.2039C233.191 55.1665 233.023 55.1479 232.725 55.1479H228.617C228.319 55.1479 228.151 55.1665 228.114 55.2039C228.076 55.2409 228.058 55.4091 228.058 55.7073V56.8582ZM236.945 62.3245V55.2598C236.945 54.6524 237.16 54.1328 237.592 53.7015C238.024 53.2699 238.543 53.0541 239.15 53.0541H244.297V55.1479H239.598C239.3 55.1479 239.132 55.1665 239.094 55.2039C239.057 55.2409 239.039 55.4091 239.039 55.7073V62.3245H236.945ZM252.369 62.3245C251.762 62.3245 251.242 62.1087 250.811 61.6771C250.379 61.2455 250.163 60.7261 250.163 60.1188V55.2598C250.163 54.6524 250.379 54.1328 250.811 53.7015C251.242 53.2699 251.762 53.0541 252.369 53.0541H259.562V55.1479H252.816C252.518 55.1479 252.35 55.1665 252.313 55.2039C252.276 55.2409 252.257 55.4091 252.257 55.7073V59.6713C252.257 59.9695 252.276 60.1373 252.313 60.1747C252.35 60.2121 252.518 60.2307 252.816 60.2307H259.578V62.3245H252.369ZM263.494 62.3245C262.887 62.3245 262.367 62.1087 261.936 61.6771C261.504 61.2455 261.288 60.7261 261.288 60.1188V50.001H263.398V59.6713C263.398 59.9695 263.417 60.1373 263.454 60.1747C263.491 60.2121 263.654 60.2307 263.941 60.2307H265.364V62.3245H263.494ZM268.848 62.3245C268.241 62.3245 267.722 62.1087 267.29 61.6771C266.858 61.2455 266.643 60.7261 266.643 60.1188V53.0541H268.737V59.6713C268.737 59.9695 268.755 60.1373 268.792 60.1747C268.83 60.2121 268.998 60.2307 269.296 60.2307H273.404C273.702 60.2307 273.87 60.2121 273.907 60.1747C273.945 60.1373 273.963 59.9695 273.963 59.6713V53.0541H276.057V60.1188C276.057 60.7261 275.841 61.2455 275.41 61.6771C274.978 62.1087 274.459 62.3245 273.851 62.3245H268.848ZM277.4 62.3245V50.0172H279.494V53.0541H284.608C285.216 53.0541 285.735 53.2699 286.167 53.7015C286.599 54.1328 286.814 54.6524 286.814 55.2598V60.1188C286.814 60.7261 286.599 61.2455 286.167 61.6771C285.735 62.1087 285.216 62.3245 284.608 62.3245H277.4ZM280.053 60.2307H284.161C284.459 60.2307 284.627 60.2121 284.664 60.1747C284.702 60.1373 284.72 59.9695 284.72 59.6713V55.7073C284.72 55.4091 284.702 55.2409 284.664 55.2039C284.627 55.1665 284.459 55.1479 284.161 55.1479H280.053C279.755 55.1479 279.587 55.1665 279.55 55.2039C279.512 55.2409 279.494 55.4091 279.494 55.7073V59.6713C279.494 59.9695 279.512 60.1373 279.55 60.1747C279.587 60.2121 279.755 60.2307 280.053 60.2307Z"/>
    <path d="M27.625 53.988C26.4125 53.988 25.8071 55.2685 25.8071 56.5501V58.472C25.8071 59.7533 26.4152 61.0322 27.625 61.0349H41.9196C38.0244 58.8496 34.198 56.3664 30.7942 53.988H27.625ZM46.3076 58.4867L46.3084 58.472V56.5501C46.3084 55.8399 46.122 55.1298 45.7501 54.6377C45.3714 54.429 44.992 54.2151 44.6087 53.9921C44.5694 53.9891 44.5305 53.988 44.4904 53.988H38.7622C41.1973 55.5576 43.7458 57.0947 46.3076 58.4867ZM38.47 49.9934H32.8744C28.1942 46.6651 24.4449 43.6392 22.647 42.0654C18.1879 38.2927 14.4515 34.3397 11.3413 30.4906V25.332C16.5238 31.2836 27.7127 42.3338 38.47 49.9934ZM25.3146 49.9934H15.0861C13.2137 49.9934 11.3413 48.717 11.3413 46.8019V42.3345V37.4359C13.73 40.0706 16.4206 42.7114 19.4439 45.2686C20.6389 46.3148 22.6946 48.0019 25.3146 49.9934ZM11.3413 18.1036V11.0597C11.3413 9.14424 13.2137 7.86865 15.0861 7.86865H58.147C60.0197 7.86865 61.8921 9.14424 61.8921 11.0597V42.3345V46.8019C61.8921 48.717 60.0197 49.9934 58.147 49.9934H46.4871C32.3494 41.302 15.6545 24.1051 12.2185 19.2541C11.9094 18.8678 11.6176 18.4846 11.3413 18.1036Z"/>
    <path d="M71.496 54.2226C71.496 46.4013 64.3644 38.7617 64.3644 40.7168C64.3644 43.2333 66.5739 48.5945 66.044 51.8593C65.0844 57.7629 59.7764 57.5622 54.6125 56.1551C39.7585 52.1087 14.8972 26.9 10.6161 20.8562C5.05605 13.9056 4.66525 7.64334 9.2022 5.19307C12.1321 3.61096 17.8248 4.08983 23.1335 5.41644C25.7407 5.41644 20.393 0 11.9197 0C-3.07069 0 -1.11554 15.642 2.79476 22.1601C6.70582 28.6775 12.5716 36.4989 21.0446 43.6679C28.6842 50.3528 71.496 83.2309 71.496 54.2226Z"/>
</svg>
