<svg width="90" height="90" viewBox="0 0 90 90" xmlns="http://www.w3.org/2000/svg">
<path d="M17.5523 78.1017C18.5535 67.2269 33.7094 61.75 45 61.75C56.157 61.75 71.5447 67.0981 72.9033 77.7181C82.1423 69.8312 88 58.0997 88 45C88 21.2518 68.7482 2 45 2C21.2518 2 2 21.2518 2 45C2 58.3138 8.05074 70.2143 17.5523 78.1017ZM90 45C90 69.8528 69.8528 90 45 90C20.1472 90 0 69.8528 0 45C0 20.1472 20.1472 0 45 0C69.8528 0 90 20.1472 90 45ZM45 53C54.6688 53 62.5 45.1688 62.5 35.5C62.5 25.8312 54.6688 18 45 18C35.3312 18 27.5 25.8312 27.5 35.5C27.5 45.1688 35.3312 53 45 53Z" fill="#00FFFF"/>
</svg>
